<svg xmlns="http://www.w3.org/2000/svg" width="20.509" height="20.488" viewBox="0 0 20.509 20.488">
  <defs>
    <style>
      .cls-1 {
        fill: #306297;
      }
    </style>
  </defs>
  <g id="Edit_Icon" data-name="Edit Icon" transform="translate(0 -0.247)">
    <path id="Path_57115" data-name="Path 57115" class="cls-1" d="M12.665,82.473,1.381,93.758a.45.45,0,0,0-.117.206L.013,98.984a.444.444,0,0,0,.431.552.442.442,0,0,0,.108-.013l5.02-1.251a.444.444,0,0,0,.206-.117L17.063,86.87Zm0,0" transform="translate(0 -78.802)"/>
    <path id="Path_57116" data-name="Path 57116" class="cls-1" d="M340.264,2.132,339.008.876a2.275,2.275,0,0,0-3.141,0l-1.539,1.539,4.4,4.4,1.539-1.539a2.222,2.222,0,0,0,0-3.141Zm0,0" transform="translate(-320.406 0)"/>
  </g>
</svg>
